<svg width="119" height="119" viewBox="0 0 119 119" fill="none" xmlns="http://www.w3.org/2000/svg">
<g clip-path="url(#clip0_49_4)">
<path d="M101.15 0H17.85C7.99172 0 0 7.99172 0 17.85V101.15C0 111.008 7.99172 119 17.85 119H101.15C111.008 119 119 111.008 119 101.15V17.85C119 7.99172 111.008 0 101.15 0Z" fill="#37AEE2"/>
<path d="M46.252 93.8984C43.6953 93.8984 43.9277 92.9688 43.2305 90.6445L35.793 66.2402L92.7363 32.7715" fill="#C8DAEA"/>
<path d="M46.252 93.8984C47.8789 93.8984 48.8086 92.9688 49.9707 92.0391L60.4297 82.0449L47.4141 74.1426" fill="#A9C9DD"/>
<path d="M47.4141 74.1425L78.791 97.1522C82.0449 99.244 84.834 98.0819 85.7637 93.8983L98.5469 33.9335C99.709 28.8202 96.4551 26.496 92.9688 28.1229L18.3613 56.9432C13.4805 58.8026 13.4805 61.8241 17.4316 62.9862L36.7227 69.0292L80.8828 40.9061C82.9746 39.744 84.834 40.2089 83.4395 41.8358" fill="#F6FBFE"/>
</g>
<defs>
<clipPath id="clip0_49_4">
<rect width="119" height="119" fill="white"/>
</clipPath>
</defs>
</svg>
