<svg width="128" height="128" viewBox="0 0 128 128" fill="none" xmlns="http://www.w3.org/2000/svg">
<path fill-rule="evenodd" clip-rule="evenodd" d="M71.4 44.764C73.892 45.295 75.802 46.242 77.434 47.77C79.534 49.753 80.685 52.153 81.191 55.601C81.533 57.849 81.393 58.733 80.596 59.466C79.85 60.148 78.471 60.173 77.636 59.529C77.029 59.074 76.839 58.594 76.7 57.293C76.536 55.562 76.232 54.35 75.713 53.226C74.6 50.839 72.639 49.601 69.325 49.197C67.769 49.007 67.301 48.831 66.795 48.237C65.871 47.138 66.226 45.357 67.503 44.7C67.984 44.46 68.186 44.435 69.249 44.498C69.908 44.536 70.882 44.65 71.4 44.764ZM68.706 35.227C76.385 36.351 82.33 39.913 86.227 45.698C88.416 48.957 89.782 52.784 90.25 56.889C90.414 58.392 90.414 61.133 90.237 61.588C90.072 62.017 89.541 62.598 89.086 62.838C88.593 63.091 87.543 63.065 86.961 62.762C85.987 62.269 85.696 61.486 85.696 59.364C85.696 56.093 84.848 52.644 83.381 49.966C81.711 46.909 79.282 44.383 76.322 42.627C73.779 41.111 70.022 39.987 66.594 39.709C65.354 39.608 64.671 39.355 64.203 38.812C63.482 37.991 63.406 36.879 64.013 35.957C64.67 34.937 65.682 34.772 68.706 35.227ZM38.914 27.434C39.357 27.586 40.04 27.939 40.432 28.192C42.835 29.784 49.527 38.335 51.716 42.604C52.968 45.042 53.386 46.848 52.994 48.187C52.589 49.627 51.919 50.385 48.92 52.797C47.718 53.769 46.592 54.767 46.415 55.033C45.96 55.69 45.593 56.978 45.593 57.888C45.606 59.997 46.972 63.825 48.768 66.768C50.159 69.054 52.651 71.984 55.118 74.233C58.015 76.886 60.57 78.692 63.455 80.119C67.162 81.963 69.426 82.43 71.083 81.66C71.5 81.47 71.943 81.218 72.082 81.104C72.208 80.99 73.183 79.803 74.245 78.489C76.294 75.912 76.762 75.495 78.167 75.015C79.951 74.409 81.772 74.573 83.607 75.508C84.999 76.228 88.035 78.11 89.995 79.474C92.576 81.28 98.091 85.777 98.838 86.674C100.153 88.291 100.381 90.362 99.496 92.649C98.56 95.061 94.917 99.583 92.374 101.516C90.072 103.259 88.44 103.928 86.289 104.029C84.518 104.117 83.784 103.966 81.52 103.031C63.76 95.718 49.579 84.805 38.32 69.811C32.438 61.98 27.959 53.858 24.898 45.433C23.114 40.52 23.026 38.385 24.493 35.871C25.126 34.81 27.82 32.183 29.781 30.718C33.045 28.293 34.55 27.396 35.752 27.143C36.574 26.966 38.004 27.105 38.914 27.434ZM67.833 26.07C72.185 26.613 75.701 27.661 79.56 29.544C83.355 31.401 85.784 33.157 88.997 36.352C92.008 39.371 93.678 41.657 95.449 45.206C97.916 50.157 99.32 56.044 99.56 62.523C99.649 64.733 99.585 65.226 99.079 65.858C98.118 67.083 96.005 66.881 95.284 65.504C95.056 65.049 94.993 64.658 94.917 62.889C94.79 60.173 94.601 58.418 94.221 56.321C92.728 48.098 88.781 41.53 82.481 36.818C77.231 32.877 71.804 30.957 64.695 30.54C62.291 30.401 61.874 30.313 61.33 29.896C60.318 29.1 60.267 27.231 61.241 26.359C61.836 25.816 62.253 25.74 64.315 25.803C65.392 25.842 66.973 25.969 67.833 26.07ZM64 0C99.346 0 128 28.654 128 64C128 99.346 99.346 128 64 128C28.654 128 0 99.346 0 64C0 28.654 28.654 0 64 0Z" fill="#7F4DA0"/>
</svg>
