<svg width="86" height="85" viewBox="0 0 86 85" fill="none" xmlns="http://www.w3.org/2000/svg">
<path fill-rule="evenodd" clip-rule="evenodd" d="M26.3184 76.6247L6.11676 83.0536L0 85L8.59305 59.619C7.15103 56.9684 6.00878 54.1603 5.19498 51.2524C4.20776 47.724 3.70963 44.0774 3.70963 40.4137C3.70963 29.6326 7.99906 19.4117 15.6458 11.8265C23.3174 4.21663 33.6148 0 44.4182 0C55.2184 0 65.5102 4.2217 73.1753 11.8327C80.8188 19.4224 85.1028 29.6457 85.1028 40.4266C85.1028 51.2057 80.8141 61.4255 73.1697 69.0102C65.5009 76.6189 55.2069 80.8368 44.4062 80.8368C40.9795 80.8368 37.5656 80.4138 34.2454 79.5644C31.5072 78.864 28.8498 77.877 26.3183 76.6246L26.3184 76.6247Z" fill="#EEEEEE"/>
<path fill-rule="evenodd" clip-rule="evenodd" d="M81.8572 40.4266C81.8572 30.1604 77.6654 20.8651 70.8883 14.1357C64.1121 7.40728 54.7532 3.24561 44.4182 3.24561C34.0742 3.24561 24.7108 7.40586 17.9314 14.1307C11.149 20.8585 6.95505 30.152 6.95505 40.4136C6.95505 43.8582 7.43145 47.2009 8.32038 50.3778C9.20368 53.5342 10.4958 56.5228 12.1338 59.2812L5.64538 78.4457L5.13246 79.9608L6.65648 79.4759L26.6131 73.1249C29.2552 74.5468 32.0821 75.6609 35.0497 76.4202C38.0397 77.1851 41.1734 77.5913 44.4061 77.5913C54.7455 77.5913 64.106 73.4308 70.8836 66.7063C77.6641 59.9789 81.8572 50.6863 81.8572 40.4266Z" fill="#54CC61"/>
<path fill-rule="evenodd" clip-rule="evenodd" d="M38.328 30.2771C38.1636 29.9459 37.2146 27.6539 36.3399 25.5413C35.7808 24.1908 35.2476 22.9029 35.143 22.6537C34.1579 20.3051 33.0692 20.3759 32.2341 20.4302C32.1793 20.4337 32.1265 20.4372 32.0559 20.4372C31.7645 20.4372 31.4781 20.419 31.1813 20.4003C30.8103 20.3767 30.4252 20.3523 30.0612 20.3523C29.5774 20.3523 28.9183 20.4527 28.2243 20.7775C27.7096 21.0184 27.1786 21.3811 26.6927 21.9151C26.6218 21.9916 26.5684 22.0478 26.5104 22.1087C25.3542 23.3241 22.8336 25.9735 22.8336 31.0617C22.8336 36.3992 26.6826 41.475 27.2482 42.2204L27.2461 42.2219L27.2514 42.2288L27.2577 42.2352C27.2799 42.2637 27.3616 42.3832 27.4823 42.5599C28.9038 44.6388 35.4386 54.1961 45.3726 58.0761C54.3847 61.5927 56.0155 61.198 57.4721 60.8456C57.7201 60.7856 57.9621 60.727 58.2241 60.7028C59.4036 60.5919 61.3333 59.7844 62.9572 58.6505C64.3043 57.7098 65.4802 56.521 65.9303 55.2693C66.332 54.1501 66.5591 53.1104 66.6644 52.2545C66.8174 51.0114 66.6963 50.0333 66.4701 49.6554L66.4669 49.6522C66.123 49.0856 65.5281 48.8048 64.6358 48.3834C64.4784 48.3091 64.3102 48.2297 64.1485 48.1515L64.1491 48.1504C63.5337 47.8375 61.4048 46.7966 59.5851 45.9364C58.4092 45.3805 57.3643 44.9029 56.9506 44.7544C56.3686 44.5454 55.8615 44.3874 55.3178 44.4486C54.7014 44.5182 54.1637 44.8357 53.6652 45.5906L53.6637 45.5896C53.4134 45.9657 52.9724 46.5295 52.4905 47.1199C51.7271 48.055 50.8164 49.1051 50.4283 49.5459V49.5491C50.2626 49.7378 50.1197 49.8406 49.9796 49.8575C49.7851 49.881 49.5178 49.8013 49.1476 49.6195C48.911 49.5011 48.6804 49.4015 48.3959 49.2787C46.9568 48.6578 44.1539 47.4485 40.9593 44.6201C39.8166 43.6087 38.811 42.5031 37.9711 41.4656C36.6118 39.7866 35.6932 38.2907 35.3281 37.6606C35.04 37.1665 35.3601 36.8461 35.6557 36.5505L35.6542 36.5488C35.9811 36.2224 36.351 35.7778 36.7222 35.3317C36.8912 35.1285 37.0603 34.9252 37.266 34.6883L37.2691 34.6851C37.7698 34.103 37.9773 33.679 38.2574 33.1069C38.3062 33.0073 38.3573 32.9029 38.4087 32.8003L38.4119 32.7972C38.6582 32.3008 38.7212 31.8286 38.6753 31.3862C38.6327 30.9744 38.4949 30.6069 38.3267 30.2776L38.328 30.2771Z" fill="#FFFFFE"/>
</svg>
