<svg width="26" height="26" viewBox="0 0 26 26" fill="none" xmlns="http://www.w3.org/2000/svg">
<path d="M20.4789 26H5.47889C4.64438 25.9998 3.82093 25.8091 3.07136 25.4423C2.32178 25.0755 1.66587 24.5424 1.15367 23.8835C0.641463 23.2247 0.286489 22.4576 0.115824 21.6407C-0.0548423 20.8239 -0.0366924 19.9788 0.168889 19.17L3.20889 6.76001C3.26364 6.53813 3.39274 6.3417 3.57468 6.20342C3.75663 6.06514 3.98045 5.99335 4.20889 6.00001H20.9589C21.1795 5.98991 21.3972 6.0531 21.5781 6.17973C21.759 6.30636 21.8929 6.4893 21.9589 6.70001L25.7389 18.86C25.9973 19.6859 26.0568 20.5612 25.9126 21.4145C25.7684 22.2678 25.4244 23.0749 24.9089 23.77C24.4018 24.468 23.7351 25.0346 22.9645 25.4226C22.1938 25.8105 21.3416 26.0085 20.4789 26ZM4.95889 8.00001L2.06889 19.65C1.94019 20.164 1.92988 20.7005 2.03873 21.2191C2.14757 21.7376 2.37274 22.2247 2.69725 22.6436C3.02175 23.0625 3.43713 23.4022 3.91205 23.6372C4.38697 23.8721 4.90904 23.9962 5.43889 24H20.4389C20.9831 24.0009 21.5198 23.8726 22.0048 23.6258C22.4898 23.3789 22.9093 23.0205 23.2289 22.58C23.5577 22.137 23.7771 21.6225 23.8692 21.0786C23.9613 20.5346 23.9235 19.9766 23.7589 19.45L20.2389 8.00001H4.95889Z" fill="black"/>
<path d="M16.9589 14C16.6937 14 16.4393 13.8946 16.2518 13.7071C16.0642 13.5196 15.9589 13.2652 15.9589 13V5C15.9589 4.20435 15.6428 3.44129 15.0802 2.87868C14.5176 2.31607 13.7545 2 12.9589 2C12.1632 2 11.4002 2.31607 10.8376 2.87868C10.275 3.44129 9.95889 4.20435 9.95889 5V13C9.95889 13.2652 9.85354 13.5196 9.666 13.7071C9.47846 13.8946 9.22411 14 8.95889 14C8.69368 14 8.43932 13.8946 8.25179 13.7071C8.06425 13.5196 7.95889 13.2652 7.95889 13V5C7.95889 3.67392 8.48568 2.40215 9.42336 1.46447C10.361 0.526784 11.6328 0 12.9589 0C14.285 0 15.5567 0.526784 16.4944 1.46447C17.4321 2.40215 17.9589 3.67392 17.9589 5V13C17.9589 13.2652 17.8535 13.5196 17.666 13.7071C17.4785 13.8946 17.2241 14 16.9589 14Z" fill="black"/>
</svg>
